<?xml version="1.0" ?><!DOCTYPE svg  PUBLIC '-//W3C//DTD SVG 1.1//EN'  'http://www.w3.org/Graphics/SVG/1.1/DTD/svg11.dtd'><svg enable-background="new 0 0 228.998 228.998" height="228.998" id="Слой_1" overflow="visible" version="1.1" viewBox="0 0 228.998 228.998" width="228.998" xml:space="preserve" xmlns="http://www.w3.org/2000/svg" xmlns:xlink="http://www.w3.org/1999/xlink"><g><path clip-rule="evenodd" d="M114.499,228.998c63.064,0,114.499-51.435,114.499-114.499   C228.998,51.436,177.563,0,114.499,0S0,51.436,0,114.499C0,177.563,51.435,228.998,114.499,228.998z" fill="#DC7E02" fill-rule="evenodd"/><path clip-rule="evenodd" d="M114.499,0C51.273,0,0,51.273,0,114.499   c0,9.451,1.145,18.633,3.306,27.416c19.453,11.778,42.267,18.559,66.66,18.559c69.365,0,125.953-54.815,128.805-123.481   C177.843,14.252,147.832,0,114.499,0z" fill="#EBB26A" fill-rule="evenodd"/><path clip-rule="evenodd" d="M1.709,114.499c0,62.281,50.509,112.791,112.79,112.791   S227.29,176.78,227.29,114.499S176.78,1.709,114.499,1.709S1.709,52.218,1.709,114.499z" fill="#FFD700" fill-rule="evenodd"/><path clip-rule="evenodd" d="M114.499,1.709c-62.281,0-112.79,50.509-112.79,112.79   c0,9.897,1.273,19.499,3.671,28.646c18.99,11.019,41.055,17.328,64.586,17.328c68.553,0,124.627-53.538,128.683-121.073   C177.991,16.271,147.941,1.709,114.499,1.709z" fill="#FFE769" fill-rule="evenodd"/><path clip-rule="evenodd" d="M114.499,205.139c49.924,0,90.642-40.716,90.642-90.64   s-40.718-90.64-90.642-90.64S23.86,64.575,23.86,114.499S64.575,205.139,114.499,205.139z" fill="#DC7E02" fill-rule="evenodd"/><path clip-rule="evenodd" d="M114.499,23.859c-50.051,0-90.641,40.589-90.641,90.64   c0,14.654,3.479,28.495,9.656,40.746c11.561,3.402,23.792,5.229,36.451,5.229c57.978,0,107.027-38.293,123.235-90.96   C177.575,42.238,148.179,23.859,114.499,23.859z" fill="#EBB26A" fill-rule="evenodd"/><path clip-rule="evenodd" d="M114.499,203.531c49.037,0,89.032-39.995,89.032-89.032   c0-49.036-39.995-89.03-89.032-89.03c-49.036,0-89.031,39.994-89.031,89.03C25.468,163.536,65.463,203.531,114.499,203.531z" fill="#11110E" fill-rule="evenodd"/><path clip-rule="evenodd" d="M114.499,25.469c-49.162,0-89.032,39.869-89.032,89.03   c0,14.926,3.675,28.994,10.169,41.351c10.931,3.014,22.442,4.624,34.33,4.624c57.203,0,105.718-37.277,122.57-88.86   C177.385,44.107,148.113,25.469,114.499,25.469z" fill="#737371" fill-rule="evenodd"/><path clip-rule="evenodd" d="M122.392,169.508c59.606,0,59.606-110.018,0-110.018   c-17.556,0-35.113,0-52.667,0v24.895h16.771v60.229H69.725v24.894C87.278,169.508,104.836,169.508,122.392,169.508L122.392,169.508   z M111.39,144.614V84.385h10.135c27.159,0,27.159,60.229,0,60.229H111.39z" fill="#FFD700" fill-rule="evenodd"/><path clip-rule="evenodd" d="M122.392,59.49H69.725v24.895h16.771v60.229H69.725v15.859   c0.08,0,0.16,0,0.241,0c38.729,0,73.475-17.088,97.107-44.132C167.756,88.236,152.86,59.49,122.392,59.49L122.392,59.49z    M111.39,84.385h10.135c27.159,0,27.159,60.229,0,60.229H111.39V84.385z" fill="#FFE769" fill-rule="evenodd"/></g></svg>